<?xml version="1.0" standalone="no"?>
<!DOCTYPE svg PUBLIC "-//W3C//DTD SVG 20010904//EN"
 "http://www.w3.org/TR/2001/REC-SVG-20010904/DTD/svg10.dtd">
<svg version="1.0" xmlns="http://www.w3.org/2000/svg"
 width="263.000000pt" height="133.000000pt" viewBox="0 0 263.000000 133.000000"
 preserveAspectRatio="xMidYMid meet">

<g transform="translate(0.000000,133.000000) scale(0.100000,-0.100000)"
fill="#000000" stroke="none">
<path d="M699 1004 l-94 -166 -280 7 c-242 6 -277 5 -260 -7 11 -8 117 -70
235 -138 118 -67 217 -124 219 -126 2 -2 -42 -106 -99 -231 -56 -126 -109
-243 -117 -262 l-14 -34 41 34 c253 210 438 299 615 299 39 0 43 3 51 33 9 28
14 32 44 32 30 0 35 -4 44 -32 7 -28 14 -33 38 -33 27 0 29 2 24 27 -30 145
-66 306 -71 313 -10 17 -65 12 -72 -6 -3 -9 -21 -83 -38 -163 -24 -108 -36
-145 -46 -142 -8 2 -48 6 -90 9 -83 5 -157 -11 -241 -54 -26 -13 -48 -23 -48
-21 0 1 22 56 50 120 27 65 51 124 52 132 2 10 -41 41 -127 90 l-130 75 135 0
135 1 65 95 c35 52 70 100 76 105 9 7 28 -19 70 -95 l59 -106 780 2 c429 1
749 3 710 5 -293 13 -1330 53 -1372 53 l-51 0 -92 175 c-51 96 -96 175 -100
175 -4 0 -49 -75 -101 -166z m357 -444 l10 -60 -26 0 -26 0 10 60 c5 33 13 60
16 60 3 0 11 -27 16 -60z"/>
<path d="M1190 555 l0 -175 85 0 c84 0 85 0 85 25 0 24 -3 25 -55 25 l-55 0 0
150 0 150 -30 0 -30 0 0 -175z"/>
<path d="M1400 555 l0 -175 85 0 c84 0 85 0 85 25 0 24 -3 25 -55 25 l-55 0 0
150 0 150 -30 0 -30 0 0 -175z"/>
<path d="M1753 720 c-28 -11 -35 -39 -31 -115 l3 -58 58 -20 c51 -17 57 -21
57 -47 0 -15 -6 -33 -14 -39 -20 -17 -46 -3 -46 25 0 20 -5 24 -30 24 -28 0
-30 -2 -30 -39 0 -56 19 -71 88 -71 82 0 87 5 87 97 l0 78 -58 18 c-58 19 -58
19 -55 55 3 32 6 37 28 37 20 0 26 -6 28 -27 3 -24 8 -28 33 -28 27 0 29 3 29
38 0 56 -18 74 -76 78 -27 2 -59 0 -71 -6z"/>
<path d="M1927 724 c-4 -4 -7 -18 -7 -31 0 -19 5 -23 30 -23 l30 0 0 -145 0
-145 30 0 30 0 0 145 0 145 31 0 c27 0 30 3 27 28 -3 27 -4 27 -83 30 -45 1
-84 0 -88 -4z"/>
<path d="M2165 720 c-5 -7 -41 -168 -71 -312 -5 -26 -3 -28 24 -28 24 0 31 5
38 33 9 28 14 32 44 32 30 0 35 -4 44 -32 7 -27 14 -33 37 -33 16 0 29 2 29 4
0 13 -71 330 -76 337 -7 12 -61 11 -69 -1z m52 -167 l10 -53 -27 0 -27 0 10
61 c11 69 20 67 34 -8z"/>
<path d="M2350 555 l0 -175 30 0 c30 0 30 1 30 55 0 73 22 74 42 3 13 -49 17
-53 48 -56 26 -3 31 0 27 12 -24 61 -27 97 -12 118 10 16 15 46 15 100 0 104
-13 118 -110 118 l-70 0 0 -175z m115 55 c0 -53 -1 -55 -27 -58 -28 -3 -28 -3
-28 58 0 61 0 61 28 58 26 -3 27 -5 27 -58z"/>
<path d="M1595 618 c-5 -22 -13 -28 -34 -28 -25 -1 -25 -1 -7 -15 13 -10 17
-21 12 -39 -6 -24 -5 -25 19 -14 19 9 28 9 37 0 20 -20 28 -14 18 12 -7 20 -5
27 13 40 l22 15 -27 0 c-20 1 -29 8 -36 29 l-10 27 -7 -27z"/>
</g>
</svg>
